<mxfile host="app.diagrams.net" agent="Mozilla/5.0 (Windows NT 10.0; Win64; x64) AppleWebKit/537.36 (KHTML, like Gecko) Chrome/132.0.0.0 Safari/537.36" version="26.0.14">
  <diagram name="Página-1" id="GDfTMsJGlhzAd1TaEO92">
    <mxGraphModel grid="1" page="1" gridSize="10" guides="1" tooltips="1" connect="1" arrows="1" fold="1" pageScale="1" pageWidth="827" pageHeight="1169" math="0" shadow="0">
      <root>
        <mxCell id="0" />
        <mxCell id="1" parent="0" />
        <mxCell id="WjTRTbFCBJ-_iwWFxgis-30" style="edgeStyle=orthogonalEdgeStyle;rounded=0;orthogonalLoop=1;jettySize=auto;html=1;" edge="1" parent="1" source="WjTRTbFCBJ-_iwWFxgis-1" target="WjTRTbFCBJ-_iwWFxgis-3">
          <mxGeometry relative="1" as="geometry" />
        </mxCell>
        <mxCell id="WjTRTbFCBJ-_iwWFxgis-1" value="INICIO" style="rounded=1;whiteSpace=wrap;html=1;arcSize=50;" vertex="1" parent="1">
          <mxGeometry x="354" y="150" width="120" height="60" as="geometry" />
        </mxCell>
        <mxCell id="WjTRTbFCBJ-_iwWFxgis-2" value="FINAL" style="rounded=1;whiteSpace=wrap;html=1;arcSize=50;" vertex="1" parent="1">
          <mxGeometry x="530" y="710" width="120" height="60" as="geometry" />
        </mxCell>
        <mxCell id="WjTRTbFCBJ-_iwWFxgis-5" style="edgeStyle=orthogonalEdgeStyle;rounded=0;orthogonalLoop=1;jettySize=auto;html=1;entryX=0.5;entryY=0;entryDx=0;entryDy=0;" edge="1" parent="1" source="WjTRTbFCBJ-_iwWFxgis-3" target="WjTRTbFCBJ-_iwWFxgis-4">
          <mxGeometry relative="1" as="geometry" />
        </mxCell>
        <mxCell id="WjTRTbFCBJ-_iwWFxgis-3" value="Verificar como está o tempo (frio ou quente)" style="rounded=0;whiteSpace=wrap;html=1;" vertex="1" parent="1">
          <mxGeometry x="354" y="250" width="120" height="60" as="geometry" />
        </mxCell>
        <mxCell id="WjTRTbFCBJ-_iwWFxgis-8" style="edgeStyle=orthogonalEdgeStyle;rounded=0;orthogonalLoop=1;jettySize=auto;html=1;" edge="1" parent="1" source="WjTRTbFCBJ-_iwWFxgis-4" target="WjTRTbFCBJ-_iwWFxgis-14">
          <mxGeometry relative="1" as="geometry">
            <mxPoint x="310" y="420" as="targetPoint" />
          </mxGeometry>
        </mxCell>
        <mxCell id="WjTRTbFCBJ-_iwWFxgis-9" style="edgeStyle=orthogonalEdgeStyle;rounded=0;orthogonalLoop=1;jettySize=auto;html=1;entryX=0;entryY=0.5;entryDx=0;entryDy=0;entryPerimeter=0;" edge="1" parent="1" source="WjTRTbFCBJ-_iwWFxgis-4" target="WjTRTbFCBJ-_iwWFxgis-15">
          <mxGeometry relative="1" as="geometry">
            <mxPoint x="530" y="420" as="targetPoint" />
          </mxGeometry>
        </mxCell>
        <mxCell id="WjTRTbFCBJ-_iwWFxgis-4" value="O tempo está frio?" style="rhombus;whiteSpace=wrap;html=1;" vertex="1" parent="1">
          <mxGeometry x="339" y="360" width="150" height="120" as="geometry" />
        </mxCell>
        <mxCell id="WjTRTbFCBJ-_iwWFxgis-18" style="edgeStyle=orthogonalEdgeStyle;rounded=0;orthogonalLoop=1;jettySize=auto;html=1;" edge="1" parent="1" source="WjTRTbFCBJ-_iwWFxgis-14" target="WjTRTbFCBJ-_iwWFxgis-16">
          <mxGeometry relative="1" as="geometry">
            <Array as="points">
              <mxPoint x="250" y="520" />
              <mxPoint x="414" y="520" />
            </Array>
          </mxGeometry>
        </mxCell>
        <mxCell id="WjTRTbFCBJ-_iwWFxgis-14" value="Use um casaco" style="shape=display;whiteSpace=wrap;html=1;size=0.25;" vertex="1" parent="1">
          <mxGeometry x="180" y="390" width="120" height="60" as="geometry" />
        </mxCell>
        <mxCell id="WjTRTbFCBJ-_iwWFxgis-20" style="edgeStyle=orthogonalEdgeStyle;rounded=0;orthogonalLoop=1;jettySize=auto;html=1;entryX=0.5;entryY=0;entryDx=0;entryDy=0;exitX=0;exitY=0;exitDx=60;exitDy=60;exitPerimeter=0;" edge="1" parent="1" source="WjTRTbFCBJ-_iwWFxgis-15" target="WjTRTbFCBJ-_iwWFxgis-16">
          <mxGeometry relative="1" as="geometry">
            <Array as="points">
              <mxPoint x="590" y="520" />
              <mxPoint x="414" y="520" />
            </Array>
          </mxGeometry>
        </mxCell>
        <mxCell id="WjTRTbFCBJ-_iwWFxgis-15" value="Use roupas leves" style="shape=display;whiteSpace=wrap;html=1;size=0.25;" vertex="1" parent="1">
          <mxGeometry x="530" y="390" width="120" height="60" as="geometry" />
        </mxCell>
        <mxCell id="WjTRTbFCBJ-_iwWFxgis-24" style="edgeStyle=orthogonalEdgeStyle;rounded=0;orthogonalLoop=1;jettySize=auto;html=1;" edge="1" parent="1" source="WjTRTbFCBJ-_iwWFxgis-16" target="WjTRTbFCBJ-_iwWFxgis-2">
          <mxGeometry relative="1" as="geometry" />
        </mxCell>
        <mxCell id="WjTRTbFCBJ-_iwWFxgis-16" value="Está chovendo?" style="rhombus;whiteSpace=wrap;html=1;" vertex="1" parent="1">
          <mxGeometry x="339" y="560" width="150" height="120" as="geometry" />
        </mxCell>
        <mxCell id="WjTRTbFCBJ-_iwWFxgis-25" style="edgeStyle=orthogonalEdgeStyle;rounded=0;orthogonalLoop=1;jettySize=auto;html=1;entryX=0;entryY=0.5;entryDx=0;entryDy=0;" edge="1" parent="1" source="WjTRTbFCBJ-_iwWFxgis-22" target="WjTRTbFCBJ-_iwWFxgis-2">
          <mxGeometry relative="1" as="geometry" />
        </mxCell>
        <mxCell id="WjTRTbFCBJ-_iwWFxgis-22" value="Use um guarda-chuva" style="shape=display;whiteSpace=wrap;html=1;size=0.25;" vertex="1" parent="1">
          <mxGeometry x="354" y="710" width="120" height="60" as="geometry" />
        </mxCell>
        <mxCell id="WjTRTbFCBJ-_iwWFxgis-23" style="edgeStyle=orthogonalEdgeStyle;rounded=0;orthogonalLoop=1;jettySize=auto;html=1;entryX=0;entryY=0;entryDx=60;entryDy=0;entryPerimeter=0;" edge="1" parent="1" source="WjTRTbFCBJ-_iwWFxgis-16" target="WjTRTbFCBJ-_iwWFxgis-22">
          <mxGeometry relative="1" as="geometry" />
        </mxCell>
        <mxCell id="WjTRTbFCBJ-_iwWFxgis-26" value="Sim" style="text;html=1;align=center;verticalAlign=middle;resizable=0;points=[];autosize=1;strokeColor=none;fillColor=none;" vertex="1" parent="1">
          <mxGeometry x="380" y="670" width="40" height="30" as="geometry" />
        </mxCell>
        <mxCell id="WjTRTbFCBJ-_iwWFxgis-27" value="Não" style="text;html=1;align=center;verticalAlign=middle;resizable=0;points=[];autosize=1;strokeColor=none;fillColor=none;" vertex="1" parent="1">
          <mxGeometry x="475" y="590" width="50" height="30" as="geometry" />
        </mxCell>
        <mxCell id="WjTRTbFCBJ-_iwWFxgis-28" value="Sim" style="text;html=1;align=center;verticalAlign=middle;resizable=0;points=[];autosize=1;strokeColor=none;fillColor=none;" vertex="1" parent="1">
          <mxGeometry x="308" y="395" width="40" height="30" as="geometry" />
        </mxCell>
        <mxCell id="WjTRTbFCBJ-_iwWFxgis-29" value="Não" style="text;html=1;align=center;verticalAlign=middle;resizable=0;points=[];autosize=1;strokeColor=none;fillColor=none;" vertex="1" parent="1">
          <mxGeometry x="477" y="396" width="50" height="30" as="geometry" />
        </mxCell>
      </root>
    </mxGraphModel>
  </diagram>
</mxfile>
